<svg width="466" height="466" viewBox="0 0 466 466" fill="none" xmlns="http://www.w3.org/2000/svg">
<path fill-rule="evenodd" clip-rule="evenodd" d="M194.165 58.25C207.11 58.25 220.054 63.1689 232.999 73.0067C245.943 63.1689 258.888 58.25 271.832 58.25H388.332C398.631 58.25 408.509 62.3414 415.791 69.624C423.074 76.9067 427.165 86.7841 427.165 97.0833V349.5C427.165 359.799 423.074 369.677 415.791 376.959C408.509 384.242 398.631 388.333 388.332 388.333H252.415C252.415 399.051 243.678 407.75 232.999 407.75C222.32 407.75 213.582 399.012 213.582 388.333H77.6654C67.3661 388.333 57.4887 384.242 50.2061 376.959C42.9234 369.677 38.832 359.799 38.832 349.5V97.0833C38.832 86.7841 42.9234 76.9067 50.2061 69.624C57.4887 62.3414 67.3661 58.25 77.6654 58.25H194.165ZM194.165 97.0833H77.6654V349.5H213.582V116.5C213.582 105.821 204.845 97.0833 194.165 97.0833ZM388.332 97.0833H271.832C261.153 97.0833 252.415 105.821 252.415 116.5V349.5H388.332V97.0833Z" fill="#9747FF"/>
</svg>
