<svg width="417" height="408" viewBox="0 0 417 408" fill="none" xmlns="http://www.w3.org/2000/svg">
<path d="M365.662 12.046V88.8276M404.953 50.4368H326.372M189.189 27.671C190.03 23.2677 192.422 19.2906 195.949 16.4286C199.475 13.5667 203.916 12 208.5 12C213.085 12 217.525 13.5667 221.051 16.4286C224.578 19.2906 226.97 23.2677 227.811 27.671L248.459 134.359C249.925 141.944 253.697 148.921 259.284 154.379C264.87 159.838 272.01 163.524 279.773 164.957L388.962 185.131C393.468 185.953 397.539 188.29 400.468 191.736C403.397 195.182 405 199.521 405 204C405 208.48 403.397 212.818 400.468 216.264C397.539 219.71 393.468 222.047 388.962 222.869L279.773 243.043C272.01 244.476 264.87 248.162 259.284 253.621C253.697 259.079 249.925 266.056 248.459 273.641L227.811 380.329C226.97 384.732 224.578 388.709 221.051 391.571C217.525 394.433 213.085 396 208.5 396C203.916 396 199.475 394.433 195.949 391.571C192.422 388.709 190.03 384.732 189.189 380.329L168.541 273.641C167.075 266.056 163.303 259.079 157.716 253.621C152.13 248.162 144.99 244.476 137.227 243.043L28.0383 222.869C23.5317 222.047 19.4615 219.71 16.5324 216.264C13.6034 212.818 12 208.48 12 204C12 199.521 13.6034 195.182 16.5324 191.736C19.4615 188.29 23.5317 185.953 28.0383 185.131L137.227 164.957C144.99 163.524 152.13 159.838 157.716 154.379C163.303 148.921 167.075 141.944 168.541 134.359L189.189 27.671Z" stroke="#A97AFE" stroke-width="24" stroke-linecap="round" stroke-linejoin="round"/>
<path d="M45.5719 395.861C64.0334 395.861 78.9993 381.242 78.9993 363.209C78.9993 345.176 64.0334 330.557 45.5719 330.557C27.1105 330.557 12.1445 345.176 12.1445 363.209C12.1445 381.242 27.1105 395.861 45.5719 395.861Z" stroke="#A97AFE" stroke-width="24" stroke-linecap="round" stroke-linejoin="round"/>
</svg>
