<svg width="526" height="480" viewBox="0 0 526 480" fill="none" xmlns="http://www.w3.org/2000/svg">
<path d="M212.932 249.726L53.282 283.775C47.0851 285.12 40.6079 283.971 35.2513 280.577C29.8948 277.183 26.0895 271.817 24.6587 265.64L10.7862 210.098C9.1552 203.406 10.0814 196.347 13.3833 190.302C16.6852 184.257 22.1249 179.663 28.637 177.419L377.49 62.719M303.22 230.455L415.13 206.585M366.253 469.491L286.04 309.066" stroke="white" stroke-width="20" stroke-linecap="round" stroke-linejoin="round"/>
<path d="M112 150.01L140.778 265.123M159.585 469.491L239.797 309.066M378.781 80.4407C375.46 67.149 377.554 53.0826 384.603 41.3348C391.652 29.5869 403.078 21.1196 416.368 17.7949L444.527 10.7682C451.169 9.11125 458.197 10.1585 464.068 13.6799C469.938 17.2013 474.171 22.9089 475.837 29.549L514.974 186.099C516.639 192.745 515.595 199.78 512.073 205.656C508.551 211.533 502.839 215.77 496.193 217.435L468.035 224.462C454.743 227.782 440.677 225.688 428.929 218.639C417.181 211.591 408.714 200.165 405.389 186.874L378.781 80.4407Z" stroke="white" stroke-width="20" stroke-linecap="round" stroke-linejoin="round"/>
<path d="M262.921 314.491C291.455 314.491 314.587 291.359 314.587 262.824C314.587 234.289 291.455 211.157 262.921 211.157C234.386 211.157 211.254 234.289 211.254 262.824C211.254 291.359 234.386 314.491 262.921 314.491Z" stroke="white" stroke-width="20" stroke-linecap="round" stroke-linejoin="round"/>
</svg>
